<?xml version="1.0" standalone="no"?>
<!DOCTYPE svg PUBLIC "-//W3C//DTD SVG 20010904//EN"
 "http://www.w3.org/TR/2001/REC-SVG-20010904/DTD/svg10.dtd">
<svg version="1.0" xmlns="http://www.w3.org/2000/svg"
 width="720.000000pt" height="727.000000pt" viewBox="0 0 720.000000 727.000000"
 preserveAspectRatio="xMidYMid meet">

<g transform="translate(0.000000,727.000000) scale(0.100000,-0.100000)"
fill="#000000" stroke="none">
<path d="M3651 7261 c-20 -5 -36 -33 -86 -146 -34 -76 -66 -140 -71 -142 -5
-2 -41 59 -79 134 l-70 138 -79 0 -79 0 3 -155 c1 -85 5 -204 9 -265 l6 -110
50 0 50 0 0 157 c0 87 4 159 9 160 7 3 70 -105 128 -219 20 -39 25 -43 60 -43
21 0 38 4 38 9 0 5 17 47 39 93 21 45 48 104 60 131 12 26 26 47 31 47 6 0 10
-36 10 -83 0 -46 3 -119 7 -161 l6 -77 51 3 51 3 -3 250 c-2 138 -6 258 -9
268 -3 13 -15 17 -56 16 -29 -1 -63 -4 -76 -8z"/>
<path d="M2775 7164 c-77 -19 -150 -37 -162 -39 -13 -3 -23 -12 -23 -19 0 -20
108 -498 114 -504 5 -4 366 75 374 82 1 2 0 22 -4 45 -8 50 -10 50 -162 15
-74 -18 -116 -24 -123 -17 -5 5 -12 32 -15 59 l-6 50 116 28 c96 23 116 31
112 45 -3 9 -8 28 -12 44 -7 32 -2 32 -100 8 -152 -37 -141 -37 -153 6 -23 80
-24 79 107 108 64 15 122 28 128 30 9 3 9 16 1 49 -13 56 -5 55 -192 10z"/>
<path d="M4193 7173 c-95 -135 -293 -438 -293 -448 0 -11 49 -25 92 -25 9 0
29 20 45 45 15 25 35 47 43 50 21 7 209 -30 221 -42 6 -6 16 -35 23 -64 l11
-54 53 -9 c29 -5 55 -7 57 -4 8 8 -119 546 -132 558 -4 5 -29 11 -54 15 -43 6
-48 5 -66 -22z m66 -180 c6 -21 13 -58 17 -82 l7 -44 -58 7 c-72 8 -78 12 -70
44 9 36 63 112 80 112 8 0 19 -17 24 -37z"/>
<path d="M2230 7009 c-96 -37 -183 -70 -193 -72 -17 -5 -17 -7 -1 -49 10 -23
18 -44 19 -45 1 -2 32 9 69 23 38 15 71 23 75 18 8 -9 111 -270 139 -352 13
-38 18 -43 38 -38 49 13 74 26 74 40 0 8 -23 74 -51 148 -60 156 -89 238 -89
248 0 4 27 18 60 30 33 12 63 27 66 31 6 10 -14 77 -24 82 -4 2 -86 -26 -182
-64z"/>
<path d="M4722 7062 c-54 -17 -102 -91 -102 -158 0 -32 40 -85 94 -124 27 -19
65 -49 85 -67 32 -28 35 -34 26 -59 -6 -17 -21 -33 -36 -38 -38 -13 -114 26
-148 75 -14 21 -32 38 -40 39 -18 0 -81 -39 -81 -51 0 -6 23 -34 50 -64 149
-156 370 -124 373 55 1 62 -24 96 -119 161 -81 57 -99 86 -69 119 35 38 120
12 174 -53 7 -9 18 -17 23 -17 15 0 68 43 68 55 0 17 -72 83 -115 105 -42 22
-144 34 -183 22z"/>
<path d="M1820 6833 c-123 -21 -220 -105 -220 -190 0 -34 33 -99 63 -124 35
-29 82 -33 182 -14 100 18 128 14 140 -25 17 -54 -49 -94 -152 -92 l-72 1 -10
-47 c-5 -26 -7 -49 -5 -52 3 -2 35 -6 72 -8 146 -8 282 87 282 196 0 42 -39
111 -74 129 -38 21 -119 22 -202 4 -67 -14 -98 -7 -106 27 -14 52 35 88 131
98 49 6 60 10 65 28 19 69 -2 84 -94 69z"/>
<path d="M5422 6712 c-23 -37 -48 -76 -55 -87 -6 -11 -21 -33 -33 -50 -32 -48
-144 -232 -144 -238 0 -9 172 -115 226 -139 104 -46 215 -22 287 63 96 111
107 234 30 334 -33 43 -231 185 -258 185 -5 0 -29 -31 -53 -68z m154 -104 c65
-44 94 -89 94 -145 0 -55 -20 -100 -65 -143 -60 -58 -152 -50 -250 23 -23 17
-18 30 46 127 20 30 53 81 72 113 20 31 41 57 46 57 5 0 31 -15 57 -32z"/>
<path d="M1328 6543 c-21 -14 -38 -30 -38 -35 0 -8 270 -391 295 -417 11 -11
20 -9 54 15 22 16 41 32 41 36 0 4 -49 74 -108 155 -59 82 -127 176 -151 211
-24 34 -47 62 -50 61 -3 0 -23 -12 -43 -26z"/>
<path d="M3377 6353 c-4 -75 -7 -193 -7 -264 l0 -127 48 -4 c26 -3 50 -3 55
-1 4 2 7 62 7 132 0 127 6 191 19 191 4 0 31 -55 60 -122 69 -159 75 -168 110
-168 26 0 34 11 101 135 41 75 78 134 84 132 6 -2 8 -46 6 -113 -2 -60 -4
-129 -4 -154 l-1 -45 55 0 55 0 9 258 c4 142 6 260 5 262 -2 2 -37 5 -78 7
l-74 3 -71 -138 c-42 -81 -76 -136 -84 -135 -7 2 -40 67 -73 146 l-61 142 -77
0 -78 0 -6 -137z"/>
<path d="M2811 6394 c-58 -13 -108 -27 -112 -31 -4 -5 15 -105 42 -223 27
-118 53 -231 58 -250 7 -34 8 -35 52 -32 24 2 48 7 53 12 6 6 3 39 -7 87 -18
81 -14 92 25 93 9 0 23 3 31 6 9 3 44 -22 92 -66 71 -66 80 -72 109 -65 17 3
46 9 64 12 17 3 32 9 32 13 0 3 -34 37 -75 74 -41 37 -75 73 -75 80 0 7 9 21
19 30 55 50 42 194 -23 253 -34 31 -40 33 -108 32 -40 0 -120 -11 -177 -25z
m204 -89 c35 -34 35 -96 -1 -124 -27 -21 -126 -46 -148 -38 -18 7 -48 139 -35
152 10 10 97 32 137 34 13 0 34 -10 47 -24z"/>
<path d="M5884 6228 c-82 -95 -159 -184 -171 -198 -13 -14 -22 -28 -21 -32 3
-7 258 -231 278 -243 13 -8 70 41 69 59 0 6 -45 49 -100 95 -54 47 -99 88 -99
92 0 3 17 26 38 49 l37 42 81 -69 c44 -38 86 -73 93 -78 14 -8 61 38 61 59 0
6 -24 30 -53 53 -29 23 -67 58 -85 76 l-33 34 33 41 c18 22 38 41 43 41 6 0
51 -35 102 -79 50 -44 97 -80 103 -80 11 0 59 49 60 61 0 7 -276 249 -283 249
-3 0 -72 -78 -153 -172z"/>
<path d="M1115 6356 c-94 -30 -153 -74 -187 -141 -39 -75 -20 -153 49 -200 50
-34 90 -32 187 9 116 49 122 50 145 27 29 -29 26 -58 -9 -91 -35 -32 -68 -46
-134 -55 -47 -6 -48 -7 -42 -37 3 -17 6 -39 6 -49 0 -41 134 -11 213 47 61 44
103 126 94 182 -7 39 -51 100 -88 120 -36 19 -105 9 -186 -26 -103 -46 -143
-41 -143 19 0 36 59 86 115 97 l40 8 0 48 c0 27 -4 51 -10 52 -5 1 -28 -3 -50
-10z"/>
<path d="M4360 6313 c-25 -32 -105 -131 -179 -221 -73 -89 -130 -166 -127
-170 4 -3 28 -12 54 -18 l47 -12 43 48 42 48 107 -28 c58 -16 110 -35 114 -41
4 -7 10 -36 14 -65 l6 -53 50 -16 c28 -10 53 -14 56 -11 4 4 -1 64 -10 134
-10 70 -24 181 -33 247 -24 193 -22 185 -52 196 -70 27 -84 23 -132 -38z m75
-165 c3 -29 8 -65 11 -80 4 -21 2 -28 -11 -28 -34 0 -107 23 -112 36 -5 15 76
123 94 123 6 1 14 -22 18 -51z"/>
<path d="M2238 6215 c-164 -60 -238 -228 -165 -377 33 -67 67 -103 127 -133
67 -34 120 -39 186 -20 141 41 219 137 218 270 0 157 -115 274 -269 274 -33 0
-76 -6 -97 -14z m166 -109 c56 -33 89 -93 89 -162 0 -97 -64 -164 -157 -164
-93 0 -166 69 -174 166 -7 84 26 143 98 176 34 15 104 8 144 -16z"/>
<path d="M4913 6090 c-129 -52 -201 -203 -163 -342 6 -21 27 -58 46 -84 33
-43 34 -47 19 -64 -11 -12 -13 -20 -6 -25 6 -3 11 -17 11 -31 0 -27 -19 -31
-50 -12 -17 11 -23 9 -40 -8 l-20 -20 29 -28 c35 -34 96 -44 126 -21 15 12 20
28 20 63 l0 47 35 -2 c187 -11 205 -6 185 59 l-12 42 -55 -3 c-163 -7 -245
156 -140 281 49 58 131 74 200 39 46 -23 67 -46 87 -95 17 -40 23 -41 89 -16
25 9 25 10 11 51 -51 144 -230 225 -372 169z"/>
<path d="M1665 5854 c-159 -126 -155 -122 -155 -133 0 -5 20 -33 43 -62 24
-30 97 -120 161 -201 64 -82 120 -148 124 -148 4 1 24 15 44 33 l37 32 -60 75
c-32 41 -58 81 -57 89 2 8 39 43 83 79 44 36 81 69 83 73 5 11 -40 68 -53 68
-5 0 -46 -29 -90 -64 -44 -36 -87 -65 -95 -65 -15 0 -70 69 -70 88 0 5 40 40
89 78 50 38 90 74 90 79 1 6 -11 25 -26 43 l-28 32 -120 -96z"/>
<path d="M5631 5859 l-33 -20 22 -24 c17 -18 29 -23 51 -18 25 5 30 1 54 -46
38 -75 87 -90 146 -43 l23 19 -23 19 c-12 10 -36 19 -53 19 -27 0 -32 5 -44
40 -26 74 -78 94 -143 54z"/>
<path d="M5510 5664 c-63 -31 -180 -88 -260 -126 l-145 -70 44 -38 44 -38 58
25 59 26 32 -26 c18 -13 58 -47 88 -75 l55 -50 -16 -61 -17 -61 41 -35 c22
-20 43 -32 47 -28 4 4 23 60 43 123 19 63 56 180 81 261 25 80 46 148 46 151
0 8 -72 78 -80 78 -3 0 -57 -25 -120 -56z m56 -121 c-29 -104 -41 -133 -55
-133 -18 1 -91 65 -91 80 0 12 107 68 133 69 13 1 17 -4 13 -16z"/>
<path d="M777 5589 c-568 -767 -797 -1735 -632 -2678 62 -353 160 -648 320
-966 196 -388 434 -701 768 -1012 84 -78 233 -199 312 -254 28 -18 52 -36 55
-39 3 -3 48 -33 100 -67 243 -155 519 -287 785 -373 137 -44 385 -110 417
-110 10 0 18 -4 18 -9 0 -5 34 -12 75 -16 41 -4 75 -11 75 -15 0 -4 30 -13 68
-19 88 -16 772 -28 772 -13 0 5 21 12 48 15 85 8 325 48 341 56 9 5 72 23 141
40 504 128 983 374 1390 715 84 70 303 284 370 361 175 201 304 385 438 620
91 160 226 477 278 651 105 357 143 593 151 964 4 191 2 281 -12 410 -58 562
-224 1047 -530 1543 -21 34 -149 213 -184 256 l-19 25 -16 -39 c-31 -73 -31
-83 1 -123 117 -147 267 -408 378 -657 133 -299 226 -663 260 -1015 32 -324 9
-747 -57 -1035 -75 -332 -148 -533 -298 -830 -162 -318 -338 -562 -599 -828
-340 -348 -714 -597 -1166 -777 -405 -162 -782 -232 -1245 -232 -265 0 -405
12 -625 53 -583 109 -1145 382 -1600 778 -102 89 -320 318 -408 428 -426 535
-671 1148 -732 1833 -30 333 -9 658 66 1010 63 296 189 632 345 912 52 95 215
347 265 410 21 26 21 27 4 75 -10 26 -22 52 -26 57 -4 4 -45 -43 -92 -105z"/>
<path d="M1276 5507 c-15 -19 -26 -38 -26 -44 0 -5 54 -56 120 -113 66 -56
120 -107 120 -113 0 -6 -27 -8 -72 -4 -40 4 -138 9 -218 13 l-146 7 -27 -36
c-15 -20 -27 -40 -27 -44 0 -5 21 -26 48 -48 26 -22 114 -98 195 -169 l149
-129 34 36 c41 43 41 50 9 75 -13 11 -52 44 -87 75 -35 30 -76 65 -91 77 -15
12 -26 27 -24 33 4 13 99 12 287 -3 l115 -9 37 36 c44 43 46 52 16 77 -13 11
-68 58 -123 105 -55 47 -113 97 -129 111 -17 14 -49 42 -72 63 -22 20 -46 37
-52 37 -6 0 -22 -15 -36 -33z"/>
<path d="M5878 5246 c-56 -15 -119 -57 -158 -104 -38 -47 -54 -108 -48 -192 4
-55 11 -79 37 -119 100 -156 287 -185 420 -65 66 59 91 115 91 201 0 143 -95
257 -234 282 -33 6 -60 11 -60 10 -1 0 -22 -6 -48 -13z m166 -125 c52 -29 71
-65 71 -135 0 -81 -28 -126 -103 -163 -41 -20 -62 -24 -98 -20 -112 12 -173
123 -126 229 44 100 164 142 256 89z"/>
<path d="M4500 4993 c-574 -127 -900 -253 -1079 -418 -181 -166 -145 -389 89
-545 66 -45 276 -153 366 -189 74 -29 264 -121 306 -147 21 -13 40 -24 43 -24
15 0 -14 26 -118 103 -232 174 -302 273 -301 428 1 118 73 230 219 341 106 81
318 176 433 194 l43 7 65 128 c35 71 64 131 64 134 0 9 -63 3 -130 -12z"/>
<path d="M4862 4900 l-72 -110 38 -72 c99 -188 156 -366 168 -525 8 -107 -17
-265 -71 -453 -54 -187 -92 -345 -105 -435 -31 -210 49 -455 200 -616 46 -48
46 -47 4 71 -33 93 -42 223 -24 352 11 85 61 293 129 538 16 58 40 155 55 215
14 61 38 153 53 205 22 82 26 116 27 250 1 144 -1 161 -27 241 -15 48 -51 127
-79 175 -77 135 -187 274 -216 274 -4 0 -40 -49 -80 -110z"/>
<path d="M844 4921 c-14 -22 -24 -45 -22 -52 2 -7 105 -70 228 -141 l224 -128
27 43 c14 23 24 47 22 52 -2 6 -86 56 -186 113 -100 56 -201 114 -224 127
l-42 26 -27 -40z"/>
<path d="M2330 4799 c-119 -25 -246 -67 -377 -125 -110 -49 -392 -195 -434
-225 l-26 -18 -7 -198 c-3 -109 -9 -255 -13 -325 l-6 -128 67 0 c59 0 69 2 73
20 5 18 14 20 74 20 38 0 69 2 69 4 0 57 45 271 72 341 73 192 198 359 333
448 l60 39 95 -4 c112 -5 170 -28 236 -94 114 -112 123 -301 23 -497 -52 -103
-105 -171 -210 -272 -154 -148 -235 -194 -407 -229 -94 -19 -107 -24 -110 -43
-2 -15 -12 -23 -33 -27 -97 -19 -89 -14 -89 -61 l0 -42 263 -6 c263 -6 306
-11 416 -51 77 -28 148 -75 203 -135 l54 -58 13 -99 c13 -108 50 -266 81 -348
25 -64 25 -100 0 -205 -49 -202 -198 -388 -343 -427 -69 -18 -236 -18 -316 1
-124 30 -272 126 -356 233 -82 102 -139 252 -160 415 l-6 47 -79 0 c-78 0 -79
0 -82 -27 -3 -26 -6 -28 -60 -31 l-56 -3 -6 -122 c-20 -409 -24 -592 -13 -604
18 -18 244 -90 359 -114 189 -39 399 -36 563 6 121 32 327 106 400 145 127 68
275 171 353 247 22 22 36 15 75 -36 46 -60 183 -192 262 -252 183 -139 387
-233 620 -285 152 -35 418 -44 561 -20 107 18 195 41 119 31 -247 -32 -555 -4
-769 70 -166 57 -388 179 -468 258 -13 12 -45 40 -71 62 -46 38 -227 241 -227
254 0 3 27 42 60 86 71 94 152 251 181 350 14 47 22 111 26 195 5 115 3 131
-21 203 -26 79 -57 130 -111 180 -42 40 -113 87 -131 87 -7 0 -14 3 -14 8 0 6
-62 29 -174 63 -16 5 -42 9 -58 9 -16 0 -31 6 -34 15 -7 17 35 185 65 266 17
45 33 65 84 106 145 116 227 251 252 413 7 39 17 55 81 116 41 40 74 77 74 84
0 13 -54 -24 -107 -73 -33 -31 -53 -29 -53 5 0 67 -58 178 -122 232 -58 50
-192 114 -273 131 -104 22 -327 19 -445 -6z m465 -13 c73 -20 188 -78 235
-118 143 -123 170 -325 71 -528 -65 -133 -238 -289 -446 -400 -44 -24 -84 -46
-90 -50 -15 -11 -274 -126 -318 -141 -84 -30 -59 -34 191 -34 275 0 340 -8
494 -60 157 -53 233 -106 299 -208 82 -126 90 -317 22 -517 -54 -160 -138
-288 -282 -430 -299 -295 -653 -438 -1018 -410 -67 5 -133 12 -145 14 -158 34
-381 98 -401 116 -7 6 2 315 19 603 l6 107 58 0 58 0 12 -72 c54 -323 246
-549 528 -623 69 -17 237 -20 310 -4 251 53 444 265 498 546 19 98 18 275 -2
371 -38 188 -150 339 -307 412 -132 62 -187 71 -475 77 l-253 5 3 41 3 41 80
13 c185 28 389 140 552 302 105 104 167 188 214 286 47 99 58 148 59 246 0
141 -57 239 -174 299 -66 34 -73 35 -175 34 -87 0 -117 -4 -166 -24 -246 -96
-443 -378 -500 -715 -25 -147 -18 -135 -78 -135 -28 0 -57 4 -63 8 -8 5 -8 93
2 322 7 173 13 318 13 322 1 11 217 128 322 175 177 77 298 114 469 143 81 13
304 5 375 -14z m-55 -1051 c-5 -14 -19 -63 -31 -108 -11 -45 -24 -85 -27 -89
-4 -3 -92 -3 -197 1 l-190 7 95 44 c52 24 149 72 215 107 137 71 149 74 135
38z"/>
<path d="M4108 3373 c-13 -136 -129 -262 -338 -368 -74 -37 -340 -145 -359
-145 -11 0 -91 -158 -91 -180 0 -6 8 -9 18 -6 9 3 55 15 102 26 117 29 155 43
264 94 275 128 423 294 433 484 3 51 0 91 -10 117 l-14 39 -5 -61z"/>
<path d="M3615 2359 c-103 -7 -245 -26 -253 -33 -2 -2 122 -6 275 -9 153 -3
337 -10 408 -16 526 -41 706 -52 935 -58 228 -6 372 3 580 38 153 26 220 41
220 49 0 4 -47 15 -104 25 -98 17 -111 17 -232 2 -71 -9 -174 -22 -229 -29
-143 -18 -597 -15 -830 6 -369 33 -566 40 -770 25z"/>
<path d="M2744 1425 c-7 -19 -14 -36 -14 -39 0 -5 -160 -414 -190 -488 -25
-58 -25 -68 -2 -68 12 0 24 19 41 68 37 105 31 102 196 102 102 0 145 -4 152
-12 5 -7 22 -46 37 -85 16 -43 34 -73 42 -73 23 0 17 23 -55 208 -38 97 -88
227 -111 287 -59 151 -70 162 -96 100z m97 -209 c33 -82 59 -157 59 -167 0
-18 -10 -19 -124 -19 -69 0 -127 4 -130 9 -9 13 115 332 127 328 5 -1 36 -70
68 -151z"/>
<path d="M3090 1145 c0 -263 2 -315 14 -315 8 0 17 8 20 17 4 9 6 113 6 232
-1 294 -1 291 8 291 5 0 57 -57 117 -127 61 -71 112 -130 115 -133 3 -3 61
-69 129 -148 100 -115 126 -140 137 -131 12 10 14 66 12 318 -3 281 -4 306
-20 309 -16 3 -18 -17 -20 -270 -2 -189 -6 -273 -14 -273 -6 0 -53 50 -104
110 -115 137 -175 207 -266 310 -39 44 -79 90 -89 103 -43 50 -45 40 -45 -293z"/>
<path d="M3938 1446 c-82 -32 -148 -88 -186 -161 -23 -43 -27 -62 -27 -140 0
-106 19 -156 85 -224 133 -137 348 -127 476 22 46 55 79 160 71 230 -13 104
-85 205 -181 254 -62 32 -180 41 -238 19z m217 -50 c211 -98 218 -397 11 -503
-42 -22 -65 -27 -126 -27 -122 -1 -208 53 -257 161 -22 48 -25 65 -21 133 7
116 60 194 163 241 60 28 166 25 230 -5z"/>
<path d="M4520 1447 c-84 -44 -110 -79 -110 -146 0 -69 59 -120 186 -161 71
-23 141 -75 154 -114 17 -53 -1 -100 -53 -134 -35 -23 -51 -27 -112 -27 -61 0
-77 4 -112 27 -23 15 -44 36 -48 48 -3 11 -13 20 -21 20 -25 0 -15 -36 21 -73
100 -103 295 -76 355 48 20 41 21 52 11 84 -12 42 -56 93 -98 115 -15 7 -64
28 -109 45 -97 37 -136 73 -136 125 0 70 58 116 147 116 55 0 77 -10 127 -58
27 -26 41 -33 49 -25 15 15 -45 81 -96 104 -47 22 -120 24 -155 6z"/>
</g>
</svg>
